<svg width="691" height="1039" viewBox="0 0 691 1039" fill="none" xmlns="http://www.w3.org/2000/svg">
<ellipse cx="577" cy="940" rx="69" ry="59" fill="#020000"/>
<path fill-rule="evenodd" clip-rule="evenodd" d="M691 76C691 64.9543 682.046 56 671 56H95C83.9543 56 75 64.9543 75 76V1019C75 1030.05 83.9543 1039 95 1039H379.225C397.105 1039 407.227 1015.94 398.94 1000.09C388.694 980.504 383 958.817 383 936C383 848.739 466.275 778 569 778C600.783 778 630.704 784.772 656.872 796.709C671.806 803.521 691 793.506 691 777.092V76Z" fill="black"/>
<path fill-rule="evenodd" clip-rule="evenodd" d="M221.863 87.557C213.867 73.9053 208.782 56.6593 211.841 41.1369C213.241 34.0318 214 26.4184 214 18.5C214 8.74691 221.395 0 231.148 0L643 0C659.569 0 673 13.4315 673 30V167C673 183.569 659.569 197 643 197H377C354.908 197 337 214.909 337 237V265C337 287.091 354.908 305 377 305H643C659.569 305 673 318.431 673 335V687.277C673 711.502 644.963 726.652 622.303 718.086C594.926 707.736 564.73 702 533 702C408.736 702 308 789.976 308 898.5C308 904.794 308.339 911.02 309.002 917.163C311.242 937.935 296.664 959 275.772 959H30C13.4315 959 0 945.569 0 929V30C0 13.4315 13.4314 0 30 0L114.852 0C124.606 0 132 8.74691 132 18.5C132 21.6152 132.118 24.6832 132.345 27.6916C133.675 45.249 124.209 63.6923 111.853 76.2361C101.967 86.2723 96 99.2836 96 113.5C96 145.256 125.773 171 162.5 171C199.227 171 229 145.256 229 113.5C229 104.166 226.428 95.3512 221.863 87.557Z" fill="#D52B2B"/>
<rect x="383" y="230" width="109" height="47" rx="23.5" fill="white"/>
<rect x="522" y="230" width="109" height="47" rx="23.5" fill="white"/>
<rect x="125" y="76" width="71" height="71" rx="35.5" fill="white"/>
</svg>
